<?xml version="1.0" encoding="utf-8"?>
<!-- Generator: Adobe Illustrator 16.0.0, SVG Export Plug-In . SVG Version: 6.00 Build 0)  -->
<!DOCTYPE svg PUBLIC "-//W3C//DTD SVG 1.1//EN" "http://www.w3.org/Graphics/SVG/1.1/DTD/svg11.dtd">
<svg version="1.1" id="Layer_1" xmlns="http://www.w3.org/2000/svg" xmlns:xlink="http://www.w3.org/1999/xlink" x="0px" y="0px"
	 width="308.904px" height="286.986px" viewBox="0 0 308.904 286.986" enable-background="new 0 0 308.904 286.986"
	 xml:space="preserve">
<g>
	<path fill="none" stroke="#26B99A" stroke-width="20" stroke-linejoin="round" stroke-miterlimit="2.6131" d="M302.785,126.64
		c0,66.917-66.502,121.16-148.53,121.16c-18.296,0-35.818-2.696-52.027-7.636L16,282.001l34.306-68.834
		C22.802,191.176,5.749,160.54,5.749,126.64c0-66.924,66.5-121.174,148.506-121.174C236.283,5.466,302.785,59.717,302.785,126.64z"
		/>
	<path fill="none" stroke="#26B99A" stroke-width="20" stroke-linejoin="round" stroke-miterlimit="2.6131" d="M197.151,202.341
		c0,0,71.025-51.651,71.025-89.917c0-44.15-58.103-58.113-71.025-4.409c-12.902-53.705-71.029-39.742-71.029,4.409
		C126.122,150.688,197.151,202.341,197.151,202.341z"/>
</g>
</svg>
