<?xml version="1.0" encoding="utf-8"?>
<!-- Generator: Adobe Illustrator 16.0.0, SVG Export Plug-In . SVG Version: 6.00 Build 0)  -->
<!DOCTYPE svg PUBLIC "-//W3C//DTD SVG 1.1//EN" "http://www.w3.org/Graphics/SVG/1.1/DTD/svg11.dtd">
<svg version="1.1" id="Layer_1" xmlns="http://www.w3.org/2000/svg" xmlns:xlink="http://www.w3.org/1999/xlink" x="0px" y="0px"
	 width="308.904px" height="286.986px" viewBox="0 0 308.904 286.986" enable-background="new 0 0 308.904 286.986"
	 xml:space="preserve">
<g>
	
		<path fill-rule="evenodd" clip-rule="evenodd" fill="none" stroke="#26B99A" stroke-width="7" stroke-linejoin="round" stroke-miterlimit="2.6131" d="
		M302.785,126.64c0,66.917-66.502,121.161-148.53,121.161c-18.296,0-35.818-2.697-52.027-7.636L16,282.001l34.306-68.834
		C22.802,191.176,5.749,160.54,5.749,126.64c0-66.923,66.5-121.173,148.506-121.173C236.283,5.466,302.785,59.717,302.785,126.64z"
		/>
	
		<path fill-rule="evenodd" clip-rule="evenodd" fill="none" stroke="#26B99A" stroke-width="7" stroke-linejoin="round" stroke-miterlimit="2.6131" d="
		M207.151,202.341c0,0,71.026-51.652,71.026-89.917c0-44.151-58.103-58.114-71.026-4.41c-12.902-53.705-71.029-39.742-71.029,4.41
		C136.122,150.688,207.151,202.341,207.151,202.341z"/>
</g>
</svg>
