<?xml version="1.0" encoding="utf-8"?>
<!-- Generator: Adobe Illustrator 16.0.0, SVG Export Plug-In . SVG Version: 6.00 Build 0)  -->
<!DOCTYPE svg PUBLIC "-//W3C//DTD SVG 1.1//EN" "http://www.w3.org/Graphics/SVG/1.1/DTD/svg11.dtd">
<svg version="1.1" id="Layer_1" xmlns="http://www.w3.org/2000/svg" xmlns:xlink="http://www.w3.org/1999/xlink" x="0px" y="0px"
	 width="512px" height="512px" viewBox="0 0 512 512" enable-background="new 0 0 512 512" xml:space="preserve">
<g id="Map">
	<polygon fill="#FFFFFF" stroke="#26B99A" stroke-width="5" stroke-miterlimit="10" points="2,71.338 182.889,20.859 
		328.001,61.363 508.888,10.873 508.888,439.513 328.001,489.99 182.889,449.488 2,499.976 	"/>
	<polygon opacity="0.3" fill="#26B99A" stroke="#26B99A" stroke-width="5" stroke-miterlimit="10" points="328.001,98.5 
		182.889,58.006 37.777,98.5 37.777,452.842 182.889,412.35 328.001,452.842 473.119,412.35 473.119,58.006 	"/>
	<polygon fill="none" stroke="#26B99A" stroke-width="5" stroke-miterlimit="10" points="328.001,98.5 182.889,58.006 37.777,98.5 
		37.777,452.842 182.889,412.35 328.001,452.842 473.119,412.35 473.119,58.006 	"/>
	<line fill="none" stroke="#26B99A" stroke-width="5" stroke-miterlimit="10" x1="182.889" y1="58.006" x2="182.889" y2="412.35"/>
	<line fill="none" stroke="#26B99A" stroke-width="5" stroke-miterlimit="10" x1="328.001" y1="452.842" x2="328.001" y2="98.5"/>
</g>
<g id="Camera">
	<polygon fill="#FFFFFF" stroke="#666766" stroke-width="5" stroke-miterlimit="10" points="344.382,189.126 331.528,152.161 
		224.004,152.161 211.153,189.126 109.204,189.126 109.204,370.32 394.926,370.32 394.926,189.126 	"/>
	<path fill="none" stroke="#666766" stroke-width="5" stroke-miterlimit="10" d="M344.382,274.58
		c0,36.797-29.822,66.615-66.614,66.615c-36.791,0-66.614-29.818-66.614-66.615c0-36.789,29.823-66.609,66.614-66.609
		C314.56,207.971,344.382,237.792,344.382,274.58z"/>
	
		<line fill="none" stroke="#666766" stroke-width="5" stroke-miterlimit="10" x1="109.204" y1="251.555" x2="215.767" y2="251.555"/>
	
		<line fill="none" stroke="#666766" stroke-width="5" stroke-miterlimit="10" x1="340.289" y1="251.555" x2="394.926" y2="251.555"/>
	
		<rect x="134.235" y="152.161" fill="#FFFFFF" stroke="#666766" stroke-width="5" stroke-miterlimit="10" width="36.964" height="36.965"/>
	<path display="none" fill="none" stroke="#9E9E9E" stroke-width="5" stroke-miterlimit="10" d="M323.971,274.877
		c0,25.689-20.819,46.506-46.502,46.506c-25.684,0-46.501-20.816-46.501-46.506c0-25.685,20.817-46.494,46.501-46.494
		C303.151,228.383,323.971,249.192,323.971,274.877z"/>
	
		<rect x="134.235" y="251.555" fill="none" stroke="#666766" stroke-width="5" stroke-miterlimit="10" width="36.964" height="23.025"/>
	<path fill="none" stroke="#666766" stroke-width="5" stroke-linecap="round" stroke-linejoin="round" stroke-miterlimit="10" d="
		M152.717,219.57l-0.03-0.031c0-0.024,0.011-0.037,0.011-0.037c0.038,0.007,0.049,0.019,0.049,0.019
		C152.748,219.551,152.736,219.57,152.717,219.57z"/>
	
		<path fill-rule="evenodd" clip-rule="evenodd" fill="none" stroke="#E64C3C" stroke-width="5" stroke-linejoin="round" stroke-miterlimit="2.6131" d="
		M277.784,315.021c0,0,39.839-28.973,39.839-50.434c0-24.764-32.589-32.594-39.839-2.473c-7.236-30.122-39.837-22.291-39.837,2.473
		C237.947,286.048,277.784,315.021,277.784,315.021z"/>
	
		<path opacity="0.3" fill-rule="evenodd" clip-rule="evenodd" fill="#E64B3C" stroke="#E64C3C" stroke-width="5" stroke-linejoin="round" stroke-miterlimit="2.6131" d="
		M277.784,315.021c0,0,39.839-28.973,39.839-50.434c0-24.764-32.589-32.594-39.839-2.473c-7.236-30.122-39.837-22.291-39.837,2.473
		C237.947,286.048,277.784,315.021,277.784,315.021z"/>
</g>
</svg>
