<?xml version="1.0" encoding="utf-8"?>
<!-- Generator: Adobe Illustrator 16.0.0, SVG Export Plug-In . SVG Version: 6.00 Build 0)  -->
<!DOCTYPE svg PUBLIC "-//W3C//DTD SVG 1.1//EN" "http://www.w3.org/Graphics/SVG/1.1/DTD/svg11.dtd">
<svg version="1.1" id="Layer_1" xmlns="http://www.w3.org/2000/svg" xmlns:xlink="http://www.w3.org/1999/xlink" x="0px" y="0px"
	 width="197.261px" height="286.986px" viewBox="0 0 197.261 286.986" enable-background="new 0 0 197.261 286.986"
	 xml:space="preserve">
<g id="Marker">
	<path fill="#FFFFFF" stroke="#26B99A" stroke-width="7" stroke-miterlimit="10" d="M16.496,136.529L16.496,136.529L16.496,136.529
		c2.569,5.607,5.681,10.883,9.286,15.801L98.5,275.9l72.711-123.57c3.605-4.918,6.722-10.194,9.292-15.801l0,0l0,0
		c5.257-11.449,8.21-24.171,8.21-37.583c0-49.826-40.398-90.224-90.213-90.224c-49.827,0-90.219,40.397-90.219,90.224
		C8.281,112.358,11.229,125.08,16.496,136.529z"/>
	
		<circle display="none" fill="#FFFFFF" stroke="#26B99A" stroke-width="7" stroke-miterlimit="10" cx="97.862" cy="102.517" r="54.372"/>
	
		<path fill-rule="evenodd" clip-rule="evenodd" fill="none" stroke="#26B99A" stroke-width="7" stroke-linejoin="round" stroke-miterlimit="2.6131" d="
		M97.667,156.756c0,0,51.886-37.736,51.886-65.688c0-32.254-42.446-42.455-51.886-3.222c-9.427-39.233-51.889-29.032-51.889,3.222
		C45.778,119.02,97.667,156.756,97.667,156.756z"/>
</g>
</svg>
